<svg width="466" height="486" viewBox="0 0 466 486" xmlns="http://www.w3.org/2000/svg">
  <path d="M75.865792.683636c-4.3 1.6-5 3.9-5.4 18.7-.3 9.4-.9 14.7-1.7 15.5-.8.8-7.6 1.4-22.4 1.8-11.7.3-22.5 1-24.2 1.4-5.2 1.4-11.9 6-14.7 10.1-5.4 7.8-5.6 9.8-6.5 53.9-1.2 59.1-1.1 60.1 1.6 65.3 3.1 5.7 7 9.5 12.4 12 4.1 1.9 6.9 2.1 40.3 2.8l35.9.7 7.2-3.7c4.1-2.1 10-6.4 13.4-9.7 4.3-4.2 6.5-5.7 7.3-4.9 1.1 1.1-1.2 31-3.9 51.5-.8 6-2.2 16.6-3 23.5-.8 6.9-1.9 15.6-2.4 19.5-1.2 8.6.5 12.8 6.4 16.2 3.3 1.8 5.4 2.1 13.4 2.1 5.7-.1 10.5.4 11.9 1.1 3.2 1.7 4.9 6.7 7.2 21 2 12.3 3.1 18.1 6.4 32.6 1.9 8.4 2.1 14.1.4 15.1-1.4.9-15.9 1.3-19.5.6-3.6-.6-4.2-4.7-3.6-22.5.6-16 .5-16.5-1.9-21.9-2.5-5.5-5.5-8.4-13.3-12.9-3.9-2.4-4.5-2.4-32-2.4-38.2-.1-45.2.5-50.8 4.4-6.1 4.1-10.4 9.4-11.6 13.8-.9 3.8-3.1 67.4-3.1 91.6 0 14 1.4 18.7 6.5 22.4 1.4 1 3.5 2.6 4.7 3.6 1.2.9 3.8 2.2 5.9 2.7 4.5 1.2 71.9.8 76.4-.5 6.3-1.8 16.9-11.8 18-16.9.2-1.2.6-9.5.7-18.6.4-20.8.7-21.4 10.3-22.5 10.5-1.1 16.4.1 20.2 4.2 1.8 1.9 3.3 4.2 3.3 5.1 0 .9.6 2.8 1.3 4.2.7 1.4 2.1 5.6 3.1 9.5 1.1 3.8 2.5 8.2 3.2 9.7 1.7 3.4 1.8 8.4.1 9.5-.6.4-8.9 1-18.3 1.3-23.1.7-21.4-1.2-21.4 23.4 0 16.6.3 19.4 1.8 21.4 1.7 2.2 1.8 2.2 30.7 2.3h28.9l4.1 4.3c2.2 2.4 6 7.1 8.5 10.4 2.5 3.3 5.2 6.3 6 6.6.8.3 2.7 1.5 4.2 2.7 1.8 1.5 4.5 2.4 8 2.7 5 .4 5.6.2 11.3-4 5.8-4.4 10-8.4 18.3-17.8l4.1-4.5 29-.5c27.4-.5 29.2-.6 31.1-2.5 1.7-1.8 2.1-4.1 3-19.3.9-14.9.8-17.6-.5-20.2-.8-1.6-2.4-3.4-3.4-4-1.1-.5-8-1-15.5-1-13.8 0-18.2-.8-19.2-3.5-.4-.8.7-6.4 2.4-12.3 7-24.4 8.6-26.6 20.8-27.5 9-.6 15.3-.2 16.5 1 1.9 1.9 3 13.2 2.6 25.9-.4 12.3-.3 13.6 1.8 18.2 2.5 5.5 6.6 9 13.8 12.1 4.6 2 6.7 2.1 38.5 2.1 35.2 0 36.8-.2 45.6-4.7 4.9-2.5 10.3-8.6 11.5-12.9.7-2.6 1.1-20.7 1.1-53.2 0-58.1.6-54.3-10.5-62.8-7.4-5.6-9.8-5.9-46-5.9h-33l-5.4 2.9c-6.3 3.2-11.7 8.4-14.5 13.8-1.7 3.1-1.8 4.1-.8 6.3.8 1.8.9 3.2.2 4.5-.5 1-1 5.8-1.1 10.7-.1 10.2-1.1 18.9-2.5 20.3-.5.5-4.6 1-9.1 1.1-9.3.3-13.3-1.4-13.3-5.5 0-1.3 2-10.3 4.5-20.1s5.5-22.3 6.6-27.9c3.1-15.1 3.3-15.3 14.3-16 13-.9 17.3-2.3 21.9-6.9 3.8-3.8 3.9-4.1 3.3-9.1-1.2-8.7-3.6-33.4-4.6-47.1-2.6-34-3-42.3-2.2-45.5l.8-3.5 5.4 5c6.2 5.6 7.6 6.6 14 9.8 4.4 2.2 5.1 2.2 39.1 2 32.6-.2 35-.4 40-2.3 7.1-2.8 12.5-6.9 16.6-12.6l3.3-4.8v-108.1l-3.3-4.8c-1.7-2.6-5.4-6.3-8.2-8.1-5.8-3.9-9.2-4.4-34.8-5.1-8.7-.3-16.7-.9-17.7-1.5-2.2-1.2-2.1-.6-2.3-19.7-.2-9.8-.5-11.5-2.2-13.3-2-2-3-2-160.8-2.2-87.4-.2-159.6 0-160.5.3zm306 12c4.9 2 5.8 6.5 5.8 30 0 17.6-.3 21.4-1.6 23.4l-1.6 2.5h-149.3c-145.2 0-149.3-.1-151.6-1.9-2.4-1.9-2.4-1.9-2.1-22.7.3-21.9 1.5-29.4 5-31 3.3-1.6 31.1-1.9 161.2-1.6 90.9.1 132.3.6 134.2 1.3zm-197.9 71.1c2 2.3 1.9.1 2.1 49.2l.1 35.8 3.6 3.2c5 4.4 5.6 5.9 5.8 16.2.2 9 .1 9.2-4.5 18l-4.7 8.9.1 11c0 10.9 0 11.1 4.2 19.5l4.2 8.4-.6 14.1c-.7 14.3-.5 15.4 3.6 27.9.8 2.4 3.7 6.4 7.4 10.1 7.6 7.6 15.5 11 23.7 10.1 10.2-1 13.3-1.9 18.5-5.5 2.9-2 6.4-4.2 7.7-4.9 3.4-1.8 8.8-9.9 10.8-16.1 1.3-4.1 1.7-9 1.7-21.5 0-10.6.4-16.6 1.1-17.3 3.2-3.2 6.9-11.8 8.1-18.8 1.5-9.3.4-16.8-4.2-26.3-3.5-7.3-4-9.1-4-15.5 0-10.2 1.3-14 6.3-18.2l4.2-3.6.7-33.7c.6-32.2 1.2-43.9 2.5-49 .9-3.7 5.1-5.3 11.4-4.3 8.1 1.3 9.5 3.7 10.4 17.5.3 6.1 1 13.3 1.5 16.1 1.1 6 2 25 2.1 43 0 7.1.4 15.7.9 19 1.3 8.8 2 59.8 1 68-4 31.5-5.5 40.4-8.6 52-.9 3.3-2.2 8.9-2.9 12.5-1.5 8-3.2 14.9-5 21.5-.8 2.7-2.1 7.7-3 11-1.5 5.4-4.9 16.8-9.2 31-.9 2.7-2 5.9-2.6 7-.6 1.1-1.4 3.3-1.8 5-.8 3.4-2.6 8.6-4.6 13.2-.7 1.7-1.3 3.5-1.3 4.1 0 .5-.7 2.3-1.5 3.8-.8 1.6-1.5 3.7-1.5 4.6 0 .9-.5 2-1 2.3-.6.3-1 1.3-1 2.1 0 2.9-8.3 21.8-14.3 32.6-10.8 19.5-18.8 28.8-24.6 28.8-1.8 0-13.1-10.5-13.1-12.1 0-.4-.6-1.4-1.2-2.1-1.2-1.2-3.4-5.5-10.5-20.8-1.7-3.6-3.9-9-4.9-12-1-3-2.4-6.4-3.1-7.5-.7-1.1-1.3-2.6-1.3-3.3 0-.8-.6-2.8-1.4-4.5-2.9-6.3-4.6-11-4.6-12.6 0-.9-.7-2.9-1.5-4.5-.8-1.5-1.5-3.6-1.5-4.5-.1-.9-1.2-4.8-2.6-8.6-3.7-10.4-7.8-24.4-9.4-32-.4-2.2-1.7-7.6-2.9-12-4.6-17-9.5-43.1-12.1-64.5-.5-4.1-1.3-10.9-1.9-15-1.8-13.1-.9-61.4 1.8-95 1.1-13.7 1.7-21.7 3.1-42 .5-7.4 1.4-15.5 1.9-18 .6-2.5 1-6.5 1.1-9 .1-6.5 2.3-12.2 5.7-14.3 3.8-2.4 13-1.5 15.6 1.5zm79.4-1.5c3.6 2.1 4.4 9.2 3.9 37.4-.3 14-.7 26.6-1 28-.2 1.3-.7 3.6-1.1 5.1-.3 1.6-1 2.8-1.6 2.8-.6 0-3.1-1.7-5.7-3.9-9.3-7.6-20.6-11.1-29.8-9.3-6.9 1.4-17.4 6.4-22 10.4-1.8 1.6-4.1 2.8-5.1 2.6-1.7-.3-1.8-2.4-1.5-34.3.4-34.7.8-38.3 4.4-39.9.7-.3 13.9-.4 29.3-.3 20.2.1 28.6.5 30.2 1.4zm-136.5 1c2.7 3.1 3 7.5.8 11-5 8.2-13 0-8.5-8.7 2.2-4.2 5.2-5.1 7.7-2.3zm220 0c2.4 2.2 2.5 10.9.1 13.5-3.6 4-7.7 1.4-8.8-5.7-1.1-7.8 3.8-12.2 8.7-7.8zm-199.4 8.4c-.2 1.9-.7 3.3-1.3 3.2-1.2-.3-1.9-4.9-1-7.1 1-2.6 2.7.2 2.3 3.9zm175.1-.7c1.6 2.8 1.1 6.1-.8 6.1-2.1 0-3.5-2.9-2.7-5.8.8-3.3 1.9-3.4 3.5-.3zm-200.5 33.2c2.3.9 2.1 22.9-.2 29.6-3.6 10.2-5.4 4.7-4.6-14.1.4-7.5 1.1-14.2 1.6-14.9 1.2-1.4 1.1-1.4 3.2-.6zm22 9.4c0 4.7-.6 19.5-1.3 33-1.8 35.7-2.1 63.4-1 80.8.6 9.9.6 15.9 0 17.1-.7 1.2-2.6 2-6.1 2.4-11.3 1.3-14.3-1.2-13-10.8.5-3.3 1.6-12.3 2.5-20 .9-7.7 2.1-15.6 2.6-17.5.5-1.9 1.3-7.6 1.8-12.5 3.8-36.2 5.3-47.9 7.1-53.5.5-1.4 1.1-7.4 1.5-13.5.7-11.7 1.6-14.8 4.3-14.3 1.4.3 1.7 1.6 1.6 8.8zm203-7.4c2.3 2.2 2.3 20.2.1 21-3.4 1.3-4.5-1.5-4.5-11.6 0-11.3.8-13.1 4.4-9.4zm-21.5 2.3c.6 1 1.3 6.7 1.6 12.7.4 6 1.1 13.1 1.6 15.9.6 2.7 1.6 11.7 2.4 20 .8 8.2 2.1 20.8 3 28 .9 7.1 2 17.9 2.6 24 .5 6 1.4 13.5 1.9 16.5 1.6 9.4 1.6 19 0 20-.8.6-4.5 1-8.2 1-9.7 0-10.2-.7-9.4-14 .4-5.8 1.1-13.4 1.7-17 1-6.3.7-41.9-.7-87.1-.4-10.9-.3-20.2 0-20.8 1-1.6 2.4-1.3 3.5.8zm-83.6 29.4c3 1.4 6.3 4.2 9.2 7.7 4.2 5.1 4.5 5.9 4.5 11.3 0 5.3-.2 5.8-2.7 6.8-2 .8-4.3.8-8.4 0-8-1.6-21-1.4-26.4.5-8.4 2.8-10.6 0-8.5-11 1-5.4 1.8-6.9 5.3-10.3 6.8-6.4 8.5-7.2 15.7-7.2 4.6 0 7.9.7 11.3 2.2zm-1.7 85.8c20.1.2 24.4 1.1 24.4 5.2 0 3.5-6.5 9-13.6 11.7-8.9 3.3-27.1 3.8-35.6.9-8.5-2.8-11.1-4.3-14.2-7.9-2.9-3.6-3.3-6.2-1.1-8 1.6-1.3 16.3-3 20.1-2.4 1.2.2 10.2.4 20 .5zm13.8 24.2c1.4 3.8-.2 7.7-4.3 10.4-5.3 3.6-10.6 4.6-21.2 4-8.1-.4-10.3-.9-13.7-3.1-5.3-3.3-7.6-6.8-6.8-10.1.8-3.3 4.5-4.1 10.4-2.2 2.8.9 7.3 1.3 11.2 1.1 8-.4 18.9-2 19.8-2.8 1.3-1.4 3.7 0 4.6 2.7zm-8.6 27.5c1.2 3.8-11.5 10-18.3 8.9-6.2-1-12.3-5.3-10.3-7.3.4-.3 5-.8 10.3-1 5.2-.2 10.3-.8 11.2-1.3 2.3-1.4 6.5-1 7.1.7zm55.2 127.2c7.6.1 9 2.1 9.2 13.5.3 12.1.5 11.9-18.5 12.2-14.9.2-20.5-.5-22.6-3.1-1.5-1.8 3-13.5 7.3-18.9 2.3-3 8.5-4.8 14.1-4.2 2.8.3 7.5.5 10.5.5zm-121.2 1.2c1.7 2.2 7.2 13 7.2 14.3 0 .7.7 1.8 1.5 2.5 2.3 1.9 1.9 5.9-.7 6.9-1.3.4-10.1.8-19.6.7-17.2-.1-17.4-.1-19.4-2.6-1.7-2.1-1.9-3.6-1.6-10 .2-5.1.9-8.5 2.1-10.3l1.7-2.7h13.9c9.9 0 14.1.4 14.9 1.2z"/>
</svg>
